#tb 0: 1/25
#media_type 0: video
#codec_id 0: rawvideo
#dimensions 0: 352x288
#sar 0: 0/1
0,          0,          0,        1,   152064, 0xdd346292
0,          1,          1,        1,   152064, 0xb07e6efd
0,          2,          2,        1,   152064, 0x81b4d540
0,          3,          3,        1,   152064, 0xc50066cf
0,          4,          4,        1,   152064, 0x30a49588
0,          5,          5,        1,   152064, 0x57520bfa
0,          6,          6,        1,   152064, 0xc0409dd9
0,          7,          7,        1,   152064, 0x8e6453e9
0,          8,          8,        1,   152064, 0x7ca86d86
0,          9,          9,        1,   152064, 0xf937b3b5
0,         10,         10,        1,   152064, 0x6c1f4604
